<mxfile host="Electron" modified="2023-08-31T08:11:44.594Z" agent="Mozilla/5.0 (Windows NT 10.0; Win64; x64) AppleWebKit/537.36 (KHTML, like Gecko) draw.io/21.6.1 Chrome/112.0.5615.204 Electron/24.6.1 Safari/537.36" etag="zbXWuzgP365b0XY4CMSd" version="21.6.1" type="device" pages="3">
  <diagram name="Page-1" id="TE9VZ5SBRQnb2_Yz3st8">
    <mxGraphModel dx="1036" dy="606" grid="1" gridSize="10" guides="1" tooltips="1" connect="1" arrows="1" fold="1" page="1" pageScale="1" pageWidth="850" pageHeight="1100" math="0" shadow="0">
      <root>
        <mxCell id="0" />
        <mxCell id="1" parent="0" />
        <mxCell id="HGSKHwMMvarCdzg37iJ7-1" style="edgeStyle=orthogonalEdgeStyle;rounded=0;orthogonalLoop=1;jettySize=auto;html=1;exitX=1;exitY=0.5;exitDx=0;exitDy=0;entryX=0;entryY=0.5;entryDx=0;entryDy=0;" parent="1" source="HGSKHwMMvarCdzg37iJ7-2" target="HGSKHwMMvarCdzg37iJ7-4" edge="1">
          <mxGeometry relative="1" as="geometry" />
        </mxCell>
        <mxCell id="HGSKHwMMvarCdzg37iJ7-2" value="" style="ellipse;html=1;shape=startState;fillColor=#000000;strokeColor=#ff0000;" parent="1" vertex="1">
          <mxGeometry x="270" y="165" width="30" height="30" as="geometry" />
        </mxCell>
        <mxCell id="HGSKHwMMvarCdzg37iJ7-3" style="edgeStyle=orthogonalEdgeStyle;rounded=0;orthogonalLoop=1;jettySize=auto;html=1;exitX=0.5;exitY=1;exitDx=0;exitDy=0;entryX=0.5;entryY=0;entryDx=0;entryDy=0;" parent="1" source="HGSKHwMMvarCdzg37iJ7-4" target="HGSKHwMMvarCdzg37iJ7-7" edge="1">
          <mxGeometry relative="1" as="geometry" />
        </mxCell>
        <mxCell id="HGSKHwMMvarCdzg37iJ7-4" value="CancelOrder" style="rounded=1;whiteSpace=wrap;html=1;arcSize=40;fontColor=#000000;fillColor=#ffffc0;strokeColor=#ff0000;" parent="1" vertex="1">
          <mxGeometry x="350" y="160" width="120" height="40" as="geometry" />
        </mxCell>
        <mxCell id="HGSKHwMMvarCdzg37iJ7-6" style="edgeStyle=orthogonalEdgeStyle;rounded=0;orthogonalLoop=1;jettySize=auto;html=1;exitX=1;exitY=0.5;exitDx=0;exitDy=0;" parent="1" source="HGSKHwMMvarCdzg37iJ7-7" edge="1">
          <mxGeometry relative="1" as="geometry">
            <mxPoint x="410" y="220" as="targetPoint" />
          </mxGeometry>
        </mxCell>
        <mxCell id="HGSKHwMMvarCdzg37iJ7-40" style="edgeStyle=orthogonalEdgeStyle;rounded=0;orthogonalLoop=1;jettySize=auto;html=1;entryX=0.5;entryY=0;entryDx=0;entryDy=0;" parent="1" source="HGSKHwMMvarCdzg37iJ7-7" target="HGSKHwMMvarCdzg37iJ7-39" edge="1">
          <mxGeometry relative="1" as="geometry" />
        </mxCell>
        <mxCell id="HGSKHwMMvarCdzg37iJ7-7" value="OrderId" style="rhombus;whiteSpace=wrap;html=1;fontColor=#000000;fillColor=#ffffc0;strokeColor=#ff0000;" parent="1" vertex="1">
          <mxGeometry x="360" y="240" width="100" height="60" as="geometry" />
        </mxCell>
        <mxCell id="HGSKHwMMvarCdzg37iJ7-10" style="edgeStyle=orthogonalEdgeStyle;rounded=0;orthogonalLoop=1;jettySize=auto;html=1;exitX=0.5;exitY=1;exitDx=0;exitDy=0;entryX=0.892;entryY=0.1;entryDx=0;entryDy=0;entryPerimeter=0;" parent="1" source="HGSKHwMMvarCdzg37iJ7-11" edge="1">
          <mxGeometry relative="1" as="geometry">
            <Array as="points">
              <mxPoint x="513" y="606" />
            </Array>
            <mxPoint x="513.28" y="677" as="targetPoint" />
          </mxGeometry>
        </mxCell>
        <mxCell id="HGSKHwMMvarCdzg37iJ7-11" value="show message&lt;br&gt;&quot;Order cancelled successfully!&quot;" style="rounded=1;whiteSpace=wrap;html=1;arcSize=40;fontColor=#000000;fillColor=#ffffc0;strokeColor=#ff0000;" parent="1" vertex="1">
          <mxGeometry x="455" y="566" width="120" height="40" as="geometry" />
        </mxCell>
        <mxCell id="HGSKHwMMvarCdzg37iJ7-12" value="" style="edgeStyle=orthogonalEdgeStyle;rounded=0;orthogonalLoop=1;jettySize=auto;html=1;" parent="1" target="HGSKHwMMvarCdzg37iJ7-14" edge="1">
          <mxGeometry relative="1" as="geometry">
            <mxPoint x="380" y="686" as="sourcePoint" />
          </mxGeometry>
        </mxCell>
        <mxCell id="HGSKHwMMvarCdzg37iJ7-13" value="" style="shape=line;html=1;strokeWidth=6;strokeColor=#ff0000;" parent="1" vertex="1">
          <mxGeometry x="227.5" y="676" width="340" height="10" as="geometry" />
        </mxCell>
        <mxCell id="HGSKHwMMvarCdzg37iJ7-14" value="" style="ellipse;html=1;shape=endState;fillColor=#000000;strokeColor=#ff0000;" parent="1" vertex="1">
          <mxGeometry x="367.5" y="740" width="30" height="30" as="geometry" />
        </mxCell>
        <mxCell id="HGSKHwMMvarCdzg37iJ7-15" value="[id]" style="text;align=center;fontStyle=1;verticalAlign=middle;spacingLeft=3;spacingRight=3;strokeColor=none;rotatable=0;points=[[0,0.5],[1,0.5]];portConstraint=eastwest;html=1;" parent="1" vertex="1">
          <mxGeometry x="390" y="320" width="80" height="26" as="geometry" />
        </mxCell>
        <mxCell id="HGSKHwMMvarCdzg37iJ7-16" value="[not id]" style="text;align=center;fontStyle=1;verticalAlign=middle;spacingLeft=3;spacingRight=3;strokeColor=none;rotatable=0;points=[[0,0.5],[1,0.5]];portConstraint=eastwest;html=1;" parent="1" vertex="1">
          <mxGeometry x="470" y="230" width="80" height="26" as="geometry" />
        </mxCell>
        <mxCell id="HGSKHwMMvarCdzg37iJ7-19" style="edgeStyle=orthogonalEdgeStyle;rounded=0;orthogonalLoop=1;jettySize=auto;html=1;exitX=1;exitY=0.5;exitDx=0;exitDy=0;" parent="1" source="HGSKHwMMvarCdzg37iJ7-21" target="HGSKHwMMvarCdzg37iJ7-11" edge="1">
          <mxGeometry relative="1" as="geometry" />
        </mxCell>
        <mxCell id="HGSKHwMMvarCdzg37iJ7-20" style="edgeStyle=orthogonalEdgeStyle;rounded=0;orthogonalLoop=1;jettySize=auto;html=1;exitX=0;exitY=0.5;exitDx=0;exitDy=0;entryX=0.5;entryY=0;entryDx=0;entryDy=0;" parent="1" source="HGSKHwMMvarCdzg37iJ7-21" target="HGSKHwMMvarCdzg37iJ7-23" edge="1">
          <mxGeometry relative="1" as="geometry" />
        </mxCell>
        <mxCell id="HGSKHwMMvarCdzg37iJ7-21" value="" style="rhombus;whiteSpace=wrap;html=1;fontColor=#000000;fillColor=#ffffc0;strokeColor=#ff0000;" parent="1" vertex="1">
          <mxGeometry x="370" y="506" width="80" height="40" as="geometry" />
        </mxCell>
        <mxCell id="HGSKHwMMvarCdzg37iJ7-22" style="edgeStyle=orthogonalEdgeStyle;rounded=0;orthogonalLoop=1;jettySize=auto;html=1;exitX=0.5;exitY=1;exitDx=0;exitDy=0;entryX=0.315;entryY=0.18;entryDx=0;entryDy=0;entryPerimeter=0;" parent="1" source="HGSKHwMMvarCdzg37iJ7-23" edge="1">
          <mxGeometry relative="1" as="geometry">
            <Array as="points">
              <mxPoint x="317" y="606" />
            </Array>
            <mxPoint x="317.0999999999999" y="677.8" as="targetPoint" />
          </mxGeometry>
        </mxCell>
        <mxCell id="HGSKHwMMvarCdzg37iJ7-23" value="show message&lt;br style=&quot;border-color: var(--border-color);&quot;&gt;&quot;[Failed to cancel the order.]&lt;br&gt;&quot;" style="rounded=1;whiteSpace=wrap;html=1;arcSize=40;fontColor=#000000;fillColor=#ffffc0;strokeColor=#ff0000;" parent="1" vertex="1">
          <mxGeometry x="260" y="566" width="120" height="54" as="geometry" />
        </mxCell>
        <mxCell id="HGSKHwMMvarCdzg37iJ7-24" value="[no]" style="text;align=center;fontStyle=1;verticalAlign=middle;spacingLeft=3;spacingRight=3;strokeColor=none;rotatable=0;points=[[0,0.5],[1,0.5]];portConstraint=eastwest;html=1;" parent="1" vertex="1">
          <mxGeometry x="287.5" y="496" width="80" height="26" as="geometry" />
        </mxCell>
        <mxCell id="HGSKHwMMvarCdzg37iJ7-25" value="[yes]" style="text;align=center;fontStyle=1;verticalAlign=middle;spacingLeft=3;spacingRight=3;strokeColor=none;rotatable=0;points=[[0,0.5],[1,0.5]];portConstraint=eastwest;html=1;" parent="1" vertex="1">
          <mxGeometry x="477.5" y="496" width="80" height="26" as="geometry" />
        </mxCell>
        <mxCell id="HGSKHwMMvarCdzg37iJ7-43" style="edgeStyle=orthogonalEdgeStyle;rounded=0;orthogonalLoop=1;jettySize=auto;html=1;exitX=0;exitY=0.5;exitDx=0;exitDy=0;" parent="1" source="HGSKHwMMvarCdzg37iJ7-39" edge="1">
          <mxGeometry relative="1" as="geometry">
            <mxPoint x="410" y="220" as="targetPoint" />
            <Array as="points">
              <mxPoint x="311" y="395" />
              <mxPoint x="311" y="220" />
            </Array>
          </mxGeometry>
        </mxCell>
        <mxCell id="HGSKHwMMvarCdzg37iJ7-46" style="edgeStyle=orthogonalEdgeStyle;rounded=0;orthogonalLoop=1;jettySize=auto;html=1;entryX=0.5;entryY=0;entryDx=0;entryDy=0;" parent="1" source="HGSKHwMMvarCdzg37iJ7-39" target="HGSKHwMMvarCdzg37iJ7-21" edge="1">
          <mxGeometry relative="1" as="geometry">
            <mxPoint x="410" y="500" as="targetPoint" />
          </mxGeometry>
        </mxCell>
        <mxCell id="HGSKHwMMvarCdzg37iJ7-39" value="check&amp;nbsp;OrderID" style="rhombus;whiteSpace=wrap;html=1;fontColor=#000000;fillColor=#ffffc0;strokeColor=#ff0000;" parent="1" vertex="1">
          <mxGeometry x="350" y="360" width="120" height="70" as="geometry" />
        </mxCell>
        <mxCell id="HGSKHwMMvarCdzg37iJ7-41" value="[have]" style="text;align=center;fontStyle=1;verticalAlign=middle;spacingLeft=3;spacingRight=3;strokeColor=none;rotatable=0;points=[[0,0.5],[1,0.5]];portConstraint=eastwest;html=1;" parent="1" vertex="1">
          <mxGeometry x="317.5" y="450" width="80" height="26" as="geometry" />
        </mxCell>
        <mxCell id="HGSKHwMMvarCdzg37iJ7-42" value="[not have show msg:&lt;br&gt;Failed to cancel the order.]" style="text;align=center;fontStyle=1;verticalAlign=middle;spacingLeft=3;spacingRight=3;strokeColor=none;rotatable=0;points=[[0,0.5],[1,0.5]];portConstraint=eastwest;html=1;" parent="1" vertex="1">
          <mxGeometry x="190" y="330" width="80" height="26" as="geometry" />
        </mxCell>
      </root>
    </mxGraphModel>
  </diagram>
  <diagram id="FpsR7tmESKf52y1RWWqT" name="Page-2">
    <mxGraphModel dx="1036" dy="606" grid="1" gridSize="10" guides="1" tooltips="1" connect="1" arrows="1" fold="1" page="1" pageScale="1" pageWidth="850" pageHeight="1100" math="0" shadow="0">
      <root>
        <mxCell id="0" />
        <mxCell id="1" parent="0" />
        <mxCell id="XmsKg2CHR13y9kAKneK7-1" value="004-CancelOrrder" style="shape=umlFrame;whiteSpace=wrap;html=1;pointerEvents=0;width=80;height=40;" vertex="1" parent="1">
          <mxGeometry x="50" y="30" width="850" height="800" as="geometry" />
        </mxCell>
        <mxCell id="XmsKg2CHR13y9kAKneK7-2" style="edgeStyle=orthogonalEdgeStyle;rounded=0;orthogonalLoop=1;jettySize=auto;html=1;exitX=0.5;exitY=0.5;exitDx=0;exitDy=0;exitPerimeter=0;entryX=0.507;entryY=0.567;entryDx=0;entryDy=0;entryPerimeter=0;endArrow=none;endFill=0;dashed=1;" edge="1" parent="1" source="XmsKg2CHR13y9kAKneK7-3" target="XmsKg2CHR13y9kAKneK7-14">
          <mxGeometry relative="1" as="geometry">
            <Array as="points">
              <mxPoint x="145" y="230" />
              <mxPoint x="145" y="230" />
            </Array>
          </mxGeometry>
        </mxCell>
        <mxCell id="XmsKg2CHR13y9kAKneK7-3" value="Staff" style="shape=umlActor;verticalLabelPosition=bottom;verticalAlign=top;html=1;" vertex="1" parent="1">
          <mxGeometry x="130" y="80" width="30" height="60" as="geometry" />
        </mxCell>
        <mxCell id="XmsKg2CHR13y9kAKneK7-4" style="edgeStyle=orthogonalEdgeStyle;rounded=0;orthogonalLoop=1;jettySize=auto;html=1;entryX=0.5;entryY=0;entryDx=0;entryDy=0;entryPerimeter=0;endArrow=none;endFill=0;dashed=1;" edge="1" parent="1" source="XmsKg2CHR13y9kAKneK7-5" target="XmsKg2CHR13y9kAKneK7-15">
          <mxGeometry relative="1" as="geometry" />
        </mxCell>
        <mxCell id="XmsKg2CHR13y9kAKneK7-5" value="Program" style="html=1;whiteSpace=wrap;" vertex="1" parent="1">
          <mxGeometry x="250" y="90" width="90" height="30" as="geometry" />
        </mxCell>
        <mxCell id="XmsKg2CHR13y9kAKneK7-6" style="edgeStyle=orthogonalEdgeStyle;rounded=0;orthogonalLoop=1;jettySize=auto;html=1;entryX=0.5;entryY=0;entryDx=0;entryDy=0;entryPerimeter=0;endArrow=none;endFill=0;dashed=1;" edge="1" parent="1" source="XmsKg2CHR13y9kAKneK7-7" target="XmsKg2CHR13y9kAKneK7-17">
          <mxGeometry relative="1" as="geometry" />
        </mxCell>
        <mxCell id="XmsKg2CHR13y9kAKneK7-7" value="Staff" style="html=1;whiteSpace=wrap;" vertex="1" parent="1">
          <mxGeometry x="370" y="90" width="90" height="30" as="geometry" />
        </mxCell>
        <mxCell id="XmsKg2CHR13y9kAKneK7-8" style="edgeStyle=orthogonalEdgeStyle;rounded=0;orthogonalLoop=1;jettySize=auto;html=1;exitX=0.5;exitY=1;exitDx=0;exitDy=0;entryX=0.4;entryY=0.005;entryDx=0;entryDy=0;entryPerimeter=0;endArrow=none;endFill=0;dashed=1;" edge="1" parent="1" source="XmsKg2CHR13y9kAKneK7-9" target="XmsKg2CHR13y9kAKneK7-19">
          <mxGeometry relative="1" as="geometry" />
        </mxCell>
        <mxCell id="XmsKg2CHR13y9kAKneK7-9" value="OrderBL" style="html=1;whiteSpace=wrap;" vertex="1" parent="1">
          <mxGeometry x="530" y="95" width="90" height="30" as="geometry" />
        </mxCell>
        <mxCell id="XmsKg2CHR13y9kAKneK7-10" style="edgeStyle=orthogonalEdgeStyle;rounded=0;orthogonalLoop=1;jettySize=auto;html=1;entryX=0.5;entryY=0;entryDx=0;entryDy=0;entryPerimeter=0;endArrow=none;endFill=0;dashed=1;" edge="1" parent="1" source="XmsKg2CHR13y9kAKneK7-11" target="XmsKg2CHR13y9kAKneK7-21">
          <mxGeometry relative="1" as="geometry" />
        </mxCell>
        <mxCell id="XmsKg2CHR13y9kAKneK7-11" value="OrderDAL" style="html=1;whiteSpace=wrap;" vertex="1" parent="1">
          <mxGeometry x="670" y="95" width="90" height="30" as="geometry" />
        </mxCell>
        <mxCell id="XmsKg2CHR13y9kAKneK7-12" style="edgeStyle=orthogonalEdgeStyle;rounded=0;orthogonalLoop=1;jettySize=auto;html=1;exitX=0.5;exitY=1;exitDx=0;exitDy=0;exitPerimeter=0;entryX=0.5;entryY=0.513;entryDx=0;entryDy=0;entryPerimeter=0;endArrow=none;endFill=0;dashed=1;" edge="1" parent="1" source="XmsKg2CHR13y9kAKneK7-13" target="XmsKg2CHR13y9kAKneK7-18">
          <mxGeometry relative="1" as="geometry" />
        </mxCell>
        <mxCell id="XmsKg2CHR13y9kAKneK7-13" value="DB" style="strokeWidth=2;html=1;shape=mxgraph.flowchart.database;whiteSpace=wrap;" vertex="1" parent="1">
          <mxGeometry x="820" y="90" width="60" height="60" as="geometry" />
        </mxCell>
        <mxCell id="XmsKg2CHR13y9kAKneK7-14" value="" style="shape=umlDestroy;whiteSpace=wrap;html=1;strokeWidth=3;targetShapes=umlLifeline;" vertex="1" parent="1">
          <mxGeometry x="130" y="780" width="30" height="30" as="geometry" />
        </mxCell>
        <mxCell id="XmsKg2CHR13y9kAKneK7-15" value="" style="html=1;points=[];perimeter=orthogonalPerimeter;outlineConnect=0;targetShapes=umlLifeline;portConstraint=eastwest;newEdgeStyle={&quot;edgeStyle&quot;:&quot;elbowEdgeStyle&quot;,&quot;elbow&quot;:&quot;vertical&quot;,&quot;curved&quot;:0,&quot;rounded&quot;:0};" vertex="1" parent="1">
          <mxGeometry x="290" y="170" width="10" height="600" as="geometry" />
        </mxCell>
        <mxCell id="XmsKg2CHR13y9kAKneK7-16" style="edgeStyle=elbowEdgeStyle;rounded=0;orthogonalLoop=1;jettySize=auto;html=1;elbow=vertical;curved=0;entryX=0.341;entryY=-0.008;entryDx=0;entryDy=0;entryPerimeter=0;endArrow=none;endFill=0;dashed=1;" edge="1" parent="1" source="XmsKg2CHR13y9kAKneK7-17" target="XmsKg2CHR13y9kAKneK7-32">
          <mxGeometry relative="1" as="geometry" />
        </mxCell>
        <mxCell id="XmsKg2CHR13y9kAKneK7-17" value="" style="html=1;points=[];perimeter=orthogonalPerimeter;outlineConnect=0;targetShapes=umlLifeline;portConstraint=eastwest;newEdgeStyle={&quot;edgeStyle&quot;:&quot;elbowEdgeStyle&quot;,&quot;elbow&quot;:&quot;vertical&quot;,&quot;curved&quot;:0,&quot;rounded&quot;:0};fillColor=#999999;" vertex="1" parent="1">
          <mxGeometry x="410" y="180" width="10" height="120" as="geometry" />
        </mxCell>
        <mxCell id="XmsKg2CHR13y9kAKneK7-18" value="" style="shape=umlDestroy;whiteSpace=wrap;html=1;strokeWidth=3;targetShapes=umlLifeline;" vertex="1" parent="1">
          <mxGeometry x="835" y="780" width="30" height="30" as="geometry" />
        </mxCell>
        <mxCell id="XmsKg2CHR13y9kAKneK7-19" value="" style="html=1;points=[];perimeter=orthogonalPerimeter;outlineConnect=0;targetShapes=umlLifeline;portConstraint=eastwest;newEdgeStyle={&quot;edgeStyle&quot;:&quot;elbowEdgeStyle&quot;,&quot;elbow&quot;:&quot;vertical&quot;,&quot;curved&quot;:0,&quot;rounded&quot;:0};fillColor=#808080;" vertex="1" parent="1">
          <mxGeometry x="570" y="455" width="10" height="95" as="geometry" />
        </mxCell>
        <mxCell id="XmsKg2CHR13y9kAKneK7-20" value="NewOrderIdBL()" style="html=1;verticalAlign=bottom;endArrow=block;edgeStyle=elbowEdgeStyle;elbow=vertical;curved=0;rounded=0;exitX=1;exitY=0.443;exitDx=0;exitDy=0;exitPerimeter=0;" edge="1" parent="1">
          <mxGeometry width="80" relative="1" as="geometry">
            <mxPoint x="300" y="460.23" as="sourcePoint" />
            <mxPoint x="570" y="460" as="targetPoint" />
          </mxGeometry>
        </mxCell>
        <mxCell id="XmsKg2CHR13y9kAKneK7-21" value="" style="html=1;points=[];perimeter=orthogonalPerimeter;outlineConnect=0;targetShapes=umlLifeline;portConstraint=eastwest;newEdgeStyle={&quot;edgeStyle&quot;:&quot;elbowEdgeStyle&quot;,&quot;elbow&quot;:&quot;vertical&quot;,&quot;curved&quot;:0,&quot;rounded&quot;:0};fillColor=#FFFFFF;" vertex="1" parent="1">
          <mxGeometry x="710" y="460" width="10" height="80" as="geometry" />
        </mxCell>
        <mxCell id="XmsKg2CHR13y9kAKneK7-22" value="GetById()" style="html=1;verticalAlign=bottom;endArrow=block;edgeStyle=elbowEdgeStyle;elbow=vertical;curved=0;rounded=0;entryX=0;entryY=0.143;entryDx=0;entryDy=0;entryPerimeter=0;" edge="1" parent="1" target="XmsKg2CHR13y9kAKneK7-21">
          <mxGeometry width="80" relative="1" as="geometry">
            <mxPoint x="580" y="470" as="sourcePoint" />
            <mxPoint x="650" y="470" as="targetPoint" />
          </mxGeometry>
        </mxCell>
        <mxCell id="XmsKg2CHR13y9kAKneK7-23" value="GetById()" style="html=1;verticalAlign=bottom;endArrow=block;edgeStyle=elbowEdgeStyle;elbow=horizontal;curved=0;rounded=0;entryX=0;entryY=0.143;entryDx=0;entryDy=0;entryPerimeter=0;" edge="1" parent="1">
          <mxGeometry width="80" relative="1" as="geometry">
            <mxPoint x="720" y="480" as="sourcePoint" />
            <mxPoint x="850" y="480" as="targetPoint" />
          </mxGeometry>
        </mxCell>
        <mxCell id="XmsKg2CHR13y9kAKneK7-24" value="" style="html=1;verticalAlign=bottom;endArrow=none;edgeStyle=elbowEdgeStyle;elbow=vertical;curved=0;rounded=0;startArrow=block;startFill=1;endFill=0;" edge="1" parent="1" source="XmsKg2CHR13y9kAKneK7-21">
          <mxGeometry width="80" relative="1" as="geometry">
            <mxPoint x="730" y="520" as="sourcePoint" />
            <mxPoint x="850" y="520" as="targetPoint" />
          </mxGeometry>
        </mxCell>
        <mxCell id="XmsKg2CHR13y9kAKneK7-25" value="" style="html=1;verticalAlign=bottom;endArrow=none;edgeStyle=elbowEdgeStyle;elbow=vertical;curved=0;rounded=0;startArrow=block;startFill=1;endFill=0;" edge="1" parent="1">
          <mxGeometry width="80" relative="1" as="geometry">
            <mxPoint x="580" y="529" as="sourcePoint" />
            <mxPoint x="710" y="529" as="targetPoint" />
          </mxGeometry>
        </mxCell>
        <mxCell id="XmsKg2CHR13y9kAKneK7-26" value="" style="html=1;verticalAlign=bottom;endArrow=none;edgeStyle=elbowEdgeStyle;elbow=vertical;curved=0;rounded=0;exitX=1;exitY=0.443;exitDx=0;exitDy=0;exitPerimeter=0;endFill=0;startArrow=block;startFill=1;" edge="1" parent="1">
          <mxGeometry width="80" relative="1" as="geometry">
            <mxPoint x="300" y="540" as="sourcePoint" />
            <mxPoint x="570" y="540" as="targetPoint" />
          </mxGeometry>
        </mxCell>
        <mxCell id="XmsKg2CHR13y9kAKneK7-27" value="" style="endArrow=classic;html=1;rounded=0;" edge="1" parent="1">
          <mxGeometry relative="1" as="geometry">
            <mxPoint x="300" y="570" as="sourcePoint" />
            <mxPoint x="300" y="630" as="targetPoint" />
            <Array as="points">
              <mxPoint x="330" y="570" />
              <mxPoint x="330" y="630" />
              <mxPoint x="320" y="630" />
            </Array>
          </mxGeometry>
        </mxCell>
        <mxCell id="XmsKg2CHR13y9kAKneK7-28" value="msg:&amp;nbsp;Failed to cancel the order" style="edgeLabel;resizable=0;html=1;align=center;verticalAlign=middle;" connectable="0" vertex="1" parent="XmsKg2CHR13y9kAKneK7-27">
          <mxGeometry relative="1" as="geometry">
            <mxPoint x="50" as="offset" />
          </mxGeometry>
        </mxCell>
        <mxCell id="XmsKg2CHR13y9kAKneK7-29" value="" style="endArrow=classic;html=1;rounded=0;" edge="1" parent="1">
          <mxGeometry relative="1" as="geometry">
            <mxPoint x="300" y="650" as="sourcePoint" />
            <mxPoint x="300" y="710" as="targetPoint" />
            <Array as="points">
              <mxPoint x="330" y="650" />
              <mxPoint x="330" y="710" />
              <mxPoint x="320" y="710" />
            </Array>
          </mxGeometry>
        </mxCell>
        <mxCell id="XmsKg2CHR13y9kAKneK7-30" value="msg:&amp;nbsp;Order cancelled successfully" style="edgeLabel;resizable=0;html=1;align=center;verticalAlign=middle;" connectable="0" vertex="1" parent="XmsKg2CHR13y9kAKneK7-29">
          <mxGeometry relative="1" as="geometry">
            <mxPoint x="60" y="5" as="offset" />
          </mxGeometry>
        </mxCell>
        <mxCell id="XmsKg2CHR13y9kAKneK7-31" value="ref" style="shape=umlFrame;whiteSpace=wrap;html=1;pointerEvents=0;" vertex="1" parent="1">
          <mxGeometry x="120" y="190" width="340" height="100" as="geometry" />
        </mxCell>
        <mxCell id="XmsKg2CHR13y9kAKneK7-32" value="alt" style="shape=umlFrame;whiteSpace=wrap;html=1;pointerEvents=0;" vertex="1" parent="1">
          <mxGeometry x="180" y="500" width="690" height="270" as="geometry" />
        </mxCell>
        <mxCell id="XmsKg2CHR13y9kAKneK7-33" style="edgeStyle=elbowEdgeStyle;rounded=0;orthogonalLoop=1;jettySize=auto;html=1;elbow=vertical;curved=0;endArrow=none;endFill=0;dashed=1;" edge="1" parent="1">
          <mxGeometry relative="1" as="geometry">
            <mxPoint x="294.5" y="770" as="sourcePoint" />
            <mxPoint x="295" y="800" as="targetPoint" />
          </mxGeometry>
        </mxCell>
        <mxCell id="XmsKg2CHR13y9kAKneK7-34" style="edgeStyle=elbowEdgeStyle;rounded=0;orthogonalLoop=1;jettySize=auto;html=1;elbow=vertical;curved=0;endArrow=none;endFill=0;dashed=1;" edge="1" parent="1">
          <mxGeometry relative="1" as="geometry">
            <mxPoint x="574.5" y="550" as="sourcePoint" />
            <mxPoint x="575" y="800" as="targetPoint" />
          </mxGeometry>
        </mxCell>
        <mxCell id="XmsKg2CHR13y9kAKneK7-35" style="edgeStyle=elbowEdgeStyle;rounded=0;orthogonalLoop=1;jettySize=auto;html=1;elbow=vertical;curved=0;endArrow=none;endFill=0;dashed=1;" edge="1" parent="1">
          <mxGeometry relative="1" as="geometry">
            <mxPoint x="714.5" y="540" as="sourcePoint" />
            <mxPoint x="715" y="800" as="targetPoint" />
          </mxGeometry>
        </mxCell>
        <mxCell id="XmsKg2CHR13y9kAKneK7-36" value="[result=null]" style="text;html=1;strokeColor=none;fillColor=none;align=center;verticalAlign=middle;whiteSpace=wrap;rounded=0;" vertex="1" parent="1">
          <mxGeometry x="200" y="580" width="60" height="30" as="geometry" />
        </mxCell>
        <mxCell id="XmsKg2CHR13y9kAKneK7-37" value="[have]" style="text;html=1;strokeColor=none;fillColor=none;align=center;verticalAlign=middle;whiteSpace=wrap;rounded=0;" vertex="1" parent="1">
          <mxGeometry x="200" y="670" width="60" height="30" as="geometry" />
        </mxCell>
        <mxCell id="XmsKg2CHR13y9kAKneK7-38" value="001-Login" style="text;html=1;strokeColor=none;fillColor=none;align=center;verticalAlign=middle;whiteSpace=wrap;rounded=0;" vertex="1" parent="1">
          <mxGeometry x="180" y="225" width="60" height="30" as="geometry" />
        </mxCell>
        <mxCell id="XmsKg2CHR13y9kAKneK7-39" value="input order id" style="html=1;verticalAlign=bottom;endArrow=block;edgeStyle=elbowEdgeStyle;elbow=vertical;curved=0;rounded=0;" edge="1" parent="1">
          <mxGeometry width="80" relative="1" as="geometry">
            <mxPoint x="150" y="320" as="sourcePoint" />
            <mxPoint x="290" y="320" as="targetPoint" />
          </mxGeometry>
        </mxCell>
        <mxCell id="XmsKg2CHR13y9kAKneK7-41" value="" style="endArrow=classic;html=1;rounded=0;" edge="1" parent="1">
          <mxGeometry relative="1" as="geometry">
            <mxPoint x="300" y="340" as="sourcePoint" />
            <mxPoint x="300" y="400" as="targetPoint" />
            <Array as="points">
              <mxPoint x="330" y="340" />
              <mxPoint x="330" y="400" />
              <mxPoint x="320" y="400" />
            </Array>
          </mxGeometry>
        </mxCell>
        <mxCell id="XmsKg2CHR13y9kAKneK7-42" value="show list&amp;nbsp;order" style="edgeLabel;resizable=0;html=1;align=center;verticalAlign=middle;" connectable="0" vertex="1" parent="XmsKg2CHR13y9kAKneK7-41">
          <mxGeometry relative="1" as="geometry">
            <mxPoint x="30" as="offset" />
          </mxGeometry>
        </mxCell>
        <mxCell id="XmsKg2CHR13y9kAKneK7-43" value="Loop" style="shape=umlFrame;whiteSpace=wrap;html=1;pointerEvents=0;" vertex="1" parent="1">
          <mxGeometry x="80" y="300" width="320" height="120" as="geometry" />
        </mxCell>
      </root>
    </mxGraphModel>
  </diagram>
  <diagram id="o4rVeVF-ALAu7kUDBPQx" name="Page-3">
    <mxGraphModel dx="1036" dy="606" grid="1" gridSize="10" guides="1" tooltips="1" connect="1" arrows="1" fold="1" page="1" pageScale="1" pageWidth="850" pageHeight="1100" math="0" shadow="0">
      <root>
        <mxCell id="0" />
        <mxCell id="1" parent="0" />
        <mxCell id="FWvcX6OLU7WVPBE-BjSK-14" style="edgeStyle=orthogonalEdgeStyle;rounded=0;orthogonalLoop=1;jettySize=auto;html=1;entryX=0;entryY=0;entryDx=80;entryDy=180;entryPerimeter=0;endArrow=none;endFill=0;" edge="1" parent="1" source="FWvcX6OLU7WVPBE-BjSK-1" target="FWvcX6OLU7WVPBE-BjSK-5">
          <mxGeometry relative="1" as="geometry" />
        </mxCell>
        <mxCell id="FWvcX6OLU7WVPBE-BjSK-1" value="&lt;span style=&quot;white-space: pre;&quot;&gt;&#x9;&lt;/span&gt;&lt;span style=&quot;white-space: pre;&quot;&gt;&#x9;&lt;/span&gt;Product&lt;br&gt;" style="verticalAlign=top;align=left;spacingTop=8;spacingLeft=2;spacingRight=12;shape=cube;size=10;direction=south;fontStyle=4;html=1;whiteSpace=wrap;strokeColor=default;gradientColor=none;fillColor=default;" vertex="1" parent="1">
          <mxGeometry x="140" y="120" width="200" height="160" as="geometry" />
        </mxCell>
        <mxCell id="FWvcX6OLU7WVPBE-BjSK-2" value="Object" style="html=1;whiteSpace=wrap;" vertex="1" parent="1">
          <mxGeometry x="170" y="160" width="110" height="50" as="geometry" />
        </mxCell>
        <mxCell id="FWvcX6OLU7WVPBE-BjSK-3" value="TobaccoStore.Zip" style="html=1;whiteSpace=wrap;" vertex="1" parent="1">
          <mxGeometry x="170" y="160" width="110" height="50" as="geometry" />
        </mxCell>
        <mxCell id="FWvcX6OLU7WVPBE-BjSK-4" value="DR" style="html=1;whiteSpace=wrap;" vertex="1" parent="1">
          <mxGeometry x="170" y="220" width="110" height="50" as="geometry" />
        </mxCell>
        <mxCell id="FWvcX6OLU7WVPBE-BjSK-5" value="&lt;span style=&quot;&quot;&gt;&lt;span style=&quot;&quot;&gt;&lt;span style=&quot;white-space: pre;&quot;&gt;&#x9;&lt;/span&gt;&amp;nbsp;&lt;/span&gt;&lt;/span&gt;DATABASE SERVER" style="verticalAlign=top;align=left;spacingTop=8;spacingLeft=2;spacingRight=12;shape=cube;size=10;direction=south;fontStyle=4;html=1;whiteSpace=wrap;strokeColor=default;gradientColor=none;fillColor=default;" vertex="1" parent="1">
          <mxGeometry x="500" y="120" width="180" height="155" as="geometry" />
        </mxCell>
        <mxCell id="FWvcX6OLU7WVPBE-BjSK-8" value="MySQL Server" style="html=1;whiteSpace=wrap;" vertex="1" parent="1">
          <mxGeometry x="535" y="190" width="110" height="50" as="geometry" />
        </mxCell>
        <mxCell id="FWvcX6OLU7WVPBE-BjSK-15" value="&lt;span style=&quot;font-weight: normal;&quot;&gt;TCP/IP&lt;/span&gt;" style="text;align=center;fontStyle=1;verticalAlign=middle;spacingLeft=3;spacingRight=3;strokeColor=none;rotatable=0;points=[[0,0.5],[1,0.5]];portConstraint=eastwest;html=1;" vertex="1" parent="1">
          <mxGeometry x="370" y="160" width="80" height="26" as="geometry" />
        </mxCell>
      </root>
    </mxGraphModel>
  </diagram>
</mxfile>
